<svg xmlns="http://www.w3.org/2000/svg" xmlns:xlink="http://www.w3.org/1999/xlink" viewBox="0 0 276.42 110.5"><defs><style>.cls-1{fill:url(#linear-gradient);}.cls-2{fill:url(#linear-gradient-2);}.cls-3{fill:url(#linear-gradient-3);}.cls-4{fill:url(#linear-gradient-4);}.cls-5{fill:url(#linear-gradient-5);}.cls-6{fill:url(#linear-gradient-6);}.cls-7{fill:#385b9b;}</style><linearGradient id="linear-gradient" x1="212.23" y1="31" x2="229.48" y2="31" gradientUnits="userSpaceOnUse"><stop offset="0" stop-color="#53b3f0"/><stop offset="1" stop-color="#385b9b"/></linearGradient><linearGradient id="linear-gradient-2" x1="204.15" y1="70.18" x2="232.75" y2="70.18" xlink:href="#linear-gradient"/><linearGradient id="linear-gradient-3" x1="220.26" y1="77.48" x2="276.42" y2="77.48" xlink:href="#linear-gradient"/><linearGradient id="linear-gradient-4" x1="211.07" y1="84.92" x2="231.74" y2="84.92" gradientUnits="userSpaceOnUse"><stop offset="0" stop-color="#a3ba46"/><stop offset="1" stop-color="#3295a8"/></linearGradient><linearGradient id="linear-gradient-5" x1="222.27" y1="83.04" x2="269.5" y2="83.04" xlink:href="#linear-gradient-4"/><linearGradient id="linear-gradient-6" x1="230.82" y1="45.55" x2="248.13" y2="-0.91" gradientUnits="userSpaceOnUse"><stop offset="0" stop-color="#f3b840"/><stop offset="1" stop-color="#a6358d"/></linearGradient></defs><g id="Layer_2" data-name="Layer 2"><g id="Layer_1-2" data-name="Layer 1"><circle class="cls-1" cx="220.85" cy="31" r="8.62"/><path class="cls-2" d="M220.65,96.48c-.58.59-1.05,1.1-1.36,1.49a52.52,52.52,0,0,1-7.91-9.3c-2.24-3.43-11-16.85-5.35-29.88,6.07-13.91,23.67-16,26.72-16.4-1.11,1.7-2.13,3.1-2.88,4.13-11.19,15.37-24.78,19.2-23.44,23.93.44,1.55,2.24,2.38,4.71,2.91,6.71,1.45,18.29.66,20.31,6S224.55,92.51,220.65,96.48Z"/><path class="cls-3" d="M258.14,107.85c-13.69,6.58-28-.12-37.88-9a14.41,14.41,0,0,0,2-.66A51.2,51.2,0,0,0,243.6,80.65a52.84,52.84,0,0,0,8.72-23.92,63.81,63.81,0,0,0,.23-12.28c8.79,2.9,17.07,8.73,21.26,18.83C280.65,79.77,273.59,100.44,258.14,107.85Z"/><path class="cls-4" d="M220.65,96.48a39.59,39.59,0,0,1-3.73-4.79c-1.48-2.25-6.48-9.88-5.78-18.33,6.71,1.45,18.29.66,20.31,6S224.55,92.51,220.65,96.48Z"/><path class="cls-5" d="M254.72,107.21c-11.94,5.73-24.49-1-32.45-9A51.2,51.2,0,0,0,243.6,80.65a52.84,52.84,0,0,0,8.72-23.92,26.55,26.55,0,0,1,15.07,14.44C272.91,84.5,267.21,101.21,254.72,107.21Z"/><path class="cls-6" d="M252.55,44.45a47.06,47.06,0,0,0-19.79-2.06h0c3.94-6,8.93-15.73,6.59-25.38-2.57-10.67-13-16.85-12.87-17S236.08,5.5,243,15.79A60.36,60.36,0,0,1,252.55,44.45Z"/><path class="cls-7" d="M61.66,71.92a10.66,10.66,0,0,0,1.39.22c.5,0,1.1.07,1.78.07h5.69V63.74a2.85,2.85,0,0,1,.2-1,1.83,1.83,0,0,1,.53-.78,1.92,1.92,0,0,1,.75-.39,3.71,3.71,0,0,1,.92-.1h1.25v8.3h27.27V65.1a9.4,9.4,0,0,0-.25-2.25,3.75,3.75,0,0,0-.89-1.7A4.3,4.3,0,0,0,98.55,60a7.11,7.11,0,0,0-2.33-.34h-6V53.83H87.48V67H83.83V58.7H81.08V67H76.92V58.7H73.21a8.17,8.17,0,0,0-2.1.25,4.52,4.52,0,0,0-1.65.79,4.1,4.1,0,0,0-1.29,1.74,6.85,6.85,0,0,0-.4,2.44v5.54H63.94a7.07,7.07,0,0,1-1.81-.22,7.38,7.38,0,0,1-1.82-.76l-1.1,2.41c.45.25.86.46,1.24.63A5.92,5.92,0,0,0,61.66,71.92Zm28.57-9.51h6.26a2.19,2.19,0,0,1,1,.21,2,2,0,0,1,.7.55,2.07,2.07,0,0,1,.4.78,3.53,3.53,0,0,1,.13,1v2H90.23Z"/><path class="cls-7" d="M63.29,67.55a1.86,1.86,0,0,0,2.25,0,1.3,1.3,0,0,0,.48-1.1,1.32,1.32,0,0,0-.46-1,1.84,1.84,0,0,0-2.29,0,1.33,1.33,0,0,0-.47,1A1.28,1.28,0,0,0,63.29,67.55Z"/><path class="cls-7" d="M63.29,63.39a1.9,1.9,0,0,0,2.25,0,1.46,1.46,0,0,0,0-2.15,1.84,1.84,0,0,0-2.29,0,1.33,1.33,0,0,0-.47,1A1.3,1.3,0,0,0,63.29,63.39Z"/><path class="cls-7" d="M81.25,56.65a1.86,1.86,0,0,0,2.25,0,1.27,1.27,0,0,0,.49-1.1,1.33,1.33,0,0,0-.47-1,1.84,1.84,0,0,0-2.29,0,1.32,1.32,0,0,0-.46,1A1.29,1.29,0,0,0,81.25,56.65Z"/><path class="cls-7" d="M114.67,69.75H119V56.58h1.27V53.83h-4V67h-3.38l0-8.3h-3.1a9,9,0,0,0-2.71.38,6.5,6.5,0,0,0-2.13,1.09,5,5,0,0,0-1.39,1.73,5.09,5.09,0,0,0-.5,2.31,5.6,5.6,0,0,0,.52,2.53A4.61,4.61,0,0,0,105,68.46a6.28,6.28,0,0,0,2.14,1,10.62,10.62,0,0,0,2.64.31h.32a2.2,2.2,0,0,1-.25.83,1.25,1.25,0,0,1-.49.48,2,2,0,0,1-.74.21,7.49,7.49,0,0,1-1,0,7.83,7.83,0,0,1-1.37-.11,11.79,11.79,0,0,1-1.5-.38l.2,2.77.81.22c.23.05.46.1.67.13a5,5,0,0,0,.66.09c.22,0,.47,0,.73,0a7,7,0,0,0,2.24-.31,4,4,0,0,0,1.51-.89,3.48,3.48,0,0,0,.88-1.36,6.39,6.39,0,0,0,.37-1.76h1.87ZM110.11,67H109a4.55,4.55,0,0,1-1.25-.17,3,3,0,0,1-1-.53,2.46,2.46,0,0,1-.68-.88,2.84,2.84,0,0,1-.25-1.21,2.39,2.39,0,0,1,.27-1.13,2.76,2.76,0,0,1,.71-.88,3.15,3.15,0,0,1,1-.56,3.66,3.66,0,0,1,1.19-.19h1.15Z"/><rect class="cls-7" x="123.09" y="53.83" width="2.75" height="15.93"/><path class="cls-7" d="M135,73.56a1.86,1.86,0,0,0,2.25,0,1.3,1.3,0,0,0,.48-1.1,1.32,1.32,0,0,0-.46-1,1.68,1.68,0,0,0-1.15-.4,1.65,1.65,0,0,0-1.14.4,1.33,1.33,0,0,0-.47,1A1.28,1.28,0,0,0,135,73.56Z"/><path class="cls-7" d="M154.22,68.07a5.6,5.6,0,0,0,.48-2.32,6.23,6.23,0,0,0-.46-2.38,5.84,5.84,0,0,0-1.28-1.9,6,6,0,0,0-1.9-1.27,5.91,5.91,0,0,0-2.33-.46,5.52,5.52,0,0,0-2.29.47,5.8,5.8,0,0,0-1.87,1.29,5.87,5.87,0,0,0-1.25,1.9,5.93,5.93,0,0,0-.46,2.35c0,.22,0,.44,0,.64a3.88,3.88,0,0,0,.1.61h-3.47c.08-.42.14-.84.19-1.27s.07-.87.07-1.32a6.83,6.83,0,0,0-.49-2.64A6.08,6.08,0,0,0,138,59.84a4.71,4.71,0,0,0-1.7-1.12,5.8,5.8,0,0,0-2.21-.4,7.44,7.44,0,0,0-2.3.34,10.05,10.05,0,0,0-2,.88l1.14,2.4a5.29,5.29,0,0,1,1.41-.68,5.07,5.07,0,0,1,1.44-.19,3.39,3.39,0,0,1,2.32.75,2.54,2.54,0,0,1,.73,1.11,3.93,3.93,0,0,1,.23,1.27,12.08,12.08,0,0,1-.09,1.39,10.81,10.81,0,0,1-.25,1.41h-7.26a10,10,0,0,0-.18,2,8.61,8.61,0,0,0,.42,2.81,9.15,9.15,0,0,0,1.15,2.27l2.14-1a7.25,7.25,0,0,1-.7-1.57,4.86,4.86,0,0,1-.22-1.45v-.3h12.39a6.24,6.24,0,0,0,1.92,1.37,5.68,5.68,0,0,0,2.36.5,5.87,5.87,0,0,0,2.28-.45,6.24,6.24,0,0,0,1.9-1.24A5.75,5.75,0,0,0,154.22,68.07ZM151.7,67a3,3,0,0,1-.68,1,3.16,3.16,0,0,1-1,.65,3.36,3.36,0,0,1-1.26.24,3,3,0,0,1-1.24-.25,3.07,3.07,0,0,1-1-.66,3.14,3.14,0,0,1-.89-2.25,3.28,3.28,0,0,1,.23-1.26,3.18,3.18,0,0,1,.65-1,3,3,0,0,1,1-.69,3,3,0,0,1,1.26-.25,3.37,3.37,0,0,1,1.29.24,3,3,0,0,1,1,.68,2.92,2.92,0,0,1,.67,1,3.35,3.35,0,0,1,.24,1.28A3,3,0,0,1,151.7,67Z"/><path class="cls-7" d="M165,56.65a1.87,1.87,0,0,0,2.26,0,1.29,1.29,0,0,0,.48-1.1,1.32,1.32,0,0,0-.46-1,1.85,1.85,0,0,0-2.3,0,1.32,1.32,0,0,0-.46,1A1.29,1.29,0,0,0,165,56.65Z"/><polygon class="cls-7" points="162.74 69.75 167.53 69.75 167.53 58.7 164.78 58.7 164.78 67 162.74 67 162.35 67 160.23 67 160.23 53.83 157.48 53.83 157.48 69.75 162.35 69.75 162.74 69.75"/><path class="cls-7" d="M169.63,74a4.9,4.9,0,0,0,.77,0,3.67,3.67,0,0,0,2.86-1,5.25,5.25,0,0,0,1.05-3.3h13.32V56.58h1.28V53.83h-4V67h-3.65V58.7h-2.75V67h-4.16V58.7h-2.75V69.4a2.53,2.53,0,0,1-.33,1.47,1.32,1.32,0,0,1-1.15.45,6.08,6.08,0,0,1-.61,0l-.68-.14L169,73.9A3.94,3.94,0,0,0,169.63,74Z"/><path class="cls-7" d="M178.71,71.41a1.32,1.32,0,0,0-.46,1,1.3,1.3,0,0,0,.48,1.1,1.87,1.87,0,0,0,2.26,0,1.3,1.3,0,0,0,.48-1.1,1.32,1.32,0,0,0-.46-1,1.85,1.85,0,0,0-2.3,0Z"/><rect class="cls-7" x="191.75" y="53.83" width="2.75" height="15.93"/><path class="cls-7" d="M35.92,81.55a1.91,1.91,0,0,0,2.26,0,1.32,1.32,0,0,0,.48-1.1,1.3,1.3,0,0,0-.46-1,1.82,1.82,0,0,0-2.3,0,1.3,1.3,0,0,0-.46,1A1.32,1.32,0,0,0,35.92,81.55Z"/><path class="cls-7" d="M39.62,93H38.05a8.58,8.58,0,0,1-1.65-.15,2.86,2.86,0,0,1-1.28-.59,2.08,2.08,0,0,1-.63-1,5.14,5.14,0,0,1-.19-1.51V83.67H31.55v6.42a8.61,8.61,0,0,0,.3,2.29,3.59,3.59,0,0,0,1,1.77,5.42,5.42,0,0,0,1,.74,5.12,5.12,0,0,0,1.11.5,7.31,7.31,0,0,0,1.32.29,13.16,13.16,0,0,0,1.6.08h4.52V83.67H39.62Z"/><path class="cls-7" d="M65.24,84.71a4.2,4.2,0,0,0-1.75-1.13,7.11,7.11,0,0,0-2.33-.34h-6V77.38H52.42V90.56h-4V77.38H45.63V93.31H66.38V88.66a9.28,9.28,0,0,0-.25-2.25A3.69,3.69,0,0,0,65.24,84.71Zm-1.61,5.85H55.17V86h6.26a2.2,2.2,0,0,1,1,.22,2,2,0,0,1,.7.55,1.93,1.93,0,0,1,.4.78,3.49,3.49,0,0,1,.13,1Z"/><path class="cls-7" d="M100.79,90.56h-1.5a3.62,3.62,0,0,1-2.75-.92c0-.27.07-.54.09-.82a8.45,8.45,0,0,0,0-.89V80.88H93.94v7.4a2.61,2.61,0,0,1-.59,1.81,2.24,2.24,0,0,1-1.76.67,2.44,2.44,0,0,1-1.8-.68A2.86,2.86,0,0,1,89.11,88V83.24H86.36v4.87a2.74,2.74,0,0,1-.23,1.19,2.14,2.14,0,0,1-.62.76,2.27,2.27,0,0,1-.85.39,3.94,3.94,0,0,1-.89.11h-2V83.24H79v7.32H73V82.25H70.24V93a2.62,2.62,0,0,1-.32,1.47,1.33,1.33,0,0,1-1.15.45,4.08,4.08,0,0,1-.61,0,4.68,4.68,0,0,1-.69-.14l.2,2.75a3,3,0,0,0,.63.13,6.33,6.33,0,0,0,.76,0,3.68,3.68,0,0,0,2.87-1,5.25,5.25,0,0,0,1-3.3h10.8a5.23,5.23,0,0,0,2.14-.45,5.55,5.55,0,0,0,1.77-1.24,3.32,3.32,0,0,0,.78.91,3.47,3.47,0,0,0,1,.58,4.31,4.31,0,0,0,1.06.31,6.86,6.86,0,0,0,1.12.09,4.67,4.67,0,0,0,4.18-1.83,4.51,4.51,0,0,0,.44.59,2.92,2.92,0,0,0,.68.53,3.54,3.54,0,0,0,1,.37,5.47,5.47,0,0,0,1,.12v0h4.68V80.13h1.27V77.38h-4Z"/><rect class="cls-7" x="107.66" y="77.38" width="2.75" height="15.93"/><path class="cls-7" d="M116.8,77.39a1.39,1.39,0,0,0,0,2.06,1.76,1.76,0,0,0,2.16,0,1.27,1.27,0,0,0,.45-1,1.3,1.3,0,0,0-.44-1,1.64,1.64,0,0,0-1.09-.38A1.63,1.63,0,0,0,116.8,77.39Z"/><path class="cls-7" d="M122.15,79.82a1.63,1.63,0,0,0,1.08-.37,1.27,1.27,0,0,0,.45-1,1.29,1.29,0,0,0-.43-1,1.77,1.77,0,0,0-2.19,0,1.41,1.41,0,0,0,0,2.06A1.63,1.63,0,0,0,122.15,79.82Z"/><path class="cls-7" d="M143.52,82.63a5.81,5.81,0,0,0-2.08,1.09,5,5,0,0,0-1.34,1.73,5.41,5.41,0,0,0-.48,2.32,4.39,4.39,0,0,0,.25,1.53,4.81,4.81,0,0,0,.69,1.26h-4.38c.08-.42.15-.84.19-1.28a11.38,11.38,0,0,0,.07-1.31,6.58,6.58,0,0,0-.49-2.64,6.07,6.07,0,0,0-1.28-1.94,5,5,0,0,0-1.7-1.12,6,6,0,0,0-2.21-.39,7.64,7.64,0,0,0-2.29.33,10.78,10.78,0,0,0-2,.89l1.14,2.39a5.6,5.6,0,0,1,1.42-.67,5,5,0,0,1,1.43-.19,3.39,3.39,0,0,1,2.32.75,2.54,2.54,0,0,1,.73,1.11,3.87,3.87,0,0,1,.23,1.26,12.11,12.11,0,0,1-.09,1.4,12.89,12.89,0,0,1-.24,1.41H123.8V81.27h-2.75v1h-.39a8.6,8.6,0,0,0-2.84.43,6.28,6.28,0,0,0-2.11,1.15,5,5,0,0,0-1.32,1.75,5.39,5.39,0,0,0-.45,2.21,5.65,5.65,0,0,0,.5,2.44A4.68,4.68,0,0,0,115.83,92,6.21,6.21,0,0,0,118,93a10.29,10.29,0,0,0,2.7.33h28.8V82.25h-3.25A9.15,9.15,0,0,0,143.52,82.63Zm-22.47,7.93h-1.2a3.88,3.88,0,0,1-1.18-.18,2.88,2.88,0,0,1-1-.53A2.71,2.71,0,0,1,117,89a2.65,2.65,0,0,1-.26-1.2A2.46,2.46,0,0,1,117,86.6a2.76,2.76,0,0,1,.76-.87,3.32,3.32,0,0,1,1.06-.54A3.77,3.77,0,0,1,120,85h1.06Zm25.66,0h-2.85a3.51,3.51,0,0,1-1.09-1.18,3.18,3.18,0,0,1-.4-1.61,2.57,2.57,0,0,1,.27-1.19,2.75,2.75,0,0,1,.72-.87,2.91,2.91,0,0,1,1-.53,3.86,3.86,0,0,1,1.17-.18h1.16Z"/><path class="cls-7" d="M145.39,80.58a1.78,1.78,0,0,0,1.13-.37,1.3,1.3,0,0,0,.48-1.1,1.32,1.32,0,0,0-.46-1,1.85,1.85,0,0,0-2.3,0,1.32,1.32,0,0,0-.46,1,1.3,1.3,0,0,0,.48,1.1A1.78,1.78,0,0,0,145.39,80.58Z"/><path class="cls-7" d="M191.17,77.38V90.56h-3.73c0-.2.07-.4.1-.61a4.54,4.54,0,0,0,0-.65,6.18,6.18,0,0,0-.46-2.37A5.88,5.88,0,0,0,185.84,85a6,6,0,0,0-1.9-1.26,5.91,5.91,0,0,0-2.33-.47,5.53,5.53,0,0,0-2.29.48,6,6,0,0,0-3.58,5.53c0,.23,0,.44,0,.65a3.12,3.12,0,0,0,.11.61h-3.63v-2a9.33,9.33,0,0,0-.26-2.25,3.68,3.68,0,0,0-.88-1.7,4.37,4.37,0,0,0-1.75-1.13,7.21,7.21,0,0,0-2.34-.34h-5.79l3-5.78h-2.94l-3.18,5.78a4.86,4.86,0,0,0,.3,1.56,5,5,0,0,0,.64,1.17h8.21a2.22,2.22,0,0,1,1,.21,2,2,0,0,1,.7.55,2.06,2.06,0,0,1,.4.78,3.53,3.53,0,0,1,.13,1v2.1H155.15V77.38H152.4V93.31h24.93a6,6,0,0,0,1.92,1.36,5.56,5.56,0,0,0,2.36.5,5.89,5.89,0,0,0,2.4-.49,5.64,5.64,0,0,0,2-1.37h7.95V80.13h1.27V77.38Zm-6.59,13.15a2.91,2.91,0,0,1-.68,1,3.3,3.3,0,0,1-2.29.9,3.16,3.16,0,0,1-1.24-.25,3.09,3.09,0,0,1-1-.67,3,3,0,0,1-.66-1,3.43,3.43,0,0,1-.23-1.25,3.47,3.47,0,0,1,.23-1.25,3.11,3.11,0,0,1,1.63-1.71,3.05,3.05,0,0,1,1.26-.26,3.27,3.27,0,0,1,1.3.25,3.09,3.09,0,0,1,1,.68,2.85,2.85,0,0,1,.66,1,3.34,3.34,0,0,1,.24,1.27A3.13,3.13,0,0,1,184.58,90.53Z"/><path d="M1.46,110.29H0V102.8H1.64l3,5.25V102.8H6.11v7.49H4.55L1.46,104.9Z"/><path d="M6.43,110.29l2.65-7.49H10.9l2.65,7.49H11.89l-.51-1.52H8.54L8,110.29ZM10,104.47l-1,3h2Z"/><path d="M15.58,110.29v-6.16H13.31V102.8H19.4v1.33H17.14v6.16Z"/><path d="M19.6,110.29V102.8h1.57v7.49Z"/><path d="M25.3,110.5a3.39,3.39,0,0,1-2.63-1.06,4,4,0,0,1-1-2.85,4.19,4.19,0,0,1,1-2.92,3.37,3.37,0,0,1,2.63-1.08,3.37,3.37,0,0,1,2.63,1.08,4.19,4.19,0,0,1,1,2.92,4,4,0,0,1-1,2.85A3.39,3.39,0,0,1,25.3,110.5Zm0-1.33a1.79,1.79,0,0,0,1.49-.69,2.93,2.93,0,0,0,.55-1.9,3.08,3.08,0,0,0-.55-2,1.93,1.93,0,0,0-3,0,3.14,3.14,0,0,0-.54,2,3,3,0,0,0,.54,1.9A1.8,1.8,0,0,0,25.3,109.17Z"/><path d="M30.94,110.29H29.48V102.8h1.64l3,5.25V102.8h1.47v7.49H34l-3.09-5.39Z"/><path d="M35.91,110.29l2.65-7.49h1.82L43,110.29H41.37l-.51-1.52H38l-.5,1.52Zm3.53-5.82-1,3h2Z"/><path d="M43.44,110.29V102.8H45V109h3.73v1.33Z"/><path d="M57.93,107.67a3,3,0,0,1-1,2.06,3.29,3.29,0,0,1-2.23.77,3.16,3.16,0,0,1-2.51-1.06,4.14,4.14,0,0,1-.93-2.85,4.32,4.32,0,0,1,.93-2.92,3.15,3.15,0,0,1,2.51-1.08,3.31,3.31,0,0,1,2.21.73,2.85,2.85,0,0,1,1,2H56.36a1.4,1.4,0,0,0-.52-1,1.74,1.74,0,0,0-1.13-.36,1.57,1.57,0,0,0-1.37.7,3.26,3.26,0,0,0-.49,1.93,3.13,3.13,0,0,0,.49,1.88,1.66,1.66,0,0,0,3-.79Z"/><path d="M57.94,110.29l2.65-7.49h1.82l2.65,7.49H63.4l-.51-1.52H60.05l-.5,1.52Zm3.54-5.82-1,3h2Z"/><path d="M66.85,110.29H65.39V102.8H67l3,5.25V102.8h1.47v7.49H70l-3.1-5.39Z"/><path d="M78.76,107.67a3.09,3.09,0,0,1-1,2.06,3.24,3.24,0,0,1-2.22.77A3.17,3.17,0,0,1,73,109.44a4.14,4.14,0,0,1-.93-2.85,4.32,4.32,0,0,1,.93-2.92,3.15,3.15,0,0,1,2.52-1.08,3.35,3.35,0,0,1,2.21.73,2.89,2.89,0,0,1,1,2H77.19a1.44,1.44,0,0,0-.52-1,1.77,1.77,0,0,0-1.14-.36,1.58,1.58,0,0,0-1.37.7,3.26,3.26,0,0,0-.49,1.93,3.13,3.13,0,0,0,.49,1.88,1.61,1.61,0,0,0,1.37.68,1.57,1.57,0,0,0,1.66-1.47Z"/><path d="M79.35,110.29V102.8h5.52v1.33h-4v1.59h3.66V107H80.92V109H85v1.33Z"/><path d="M85.71,110.29V102.8h3.78a2.51,2.51,0,0,1,1.72.57,1.92,1.92,0,0,1,.66,1.51,1.8,1.8,0,0,1-.73,1.59,2.58,2.58,0,0,1-.44.22,1.45,1.45,0,0,1,.25.12,1.44,1.44,0,0,1,.67,1.29l0,1.23a1.68,1.68,0,0,0,.08.51.46.46,0,0,0,.26.25v.2H90.26a1.79,1.79,0,0,1-.11-.5c0-.26,0-.54-.05-.83v-.69a.87.87,0,0,0-.3-.72,1.64,1.64,0,0,0-1-.22H87.28v3Zm1.57-4.22h1.81a1.43,1.43,0,0,0,.91-.24.91.91,0,0,0,.31-.75.92.92,0,0,0-.29-.74,1.29,1.29,0,0,0-.87-.25H87.28Z"/><path d="M101.38,107.67a3.09,3.09,0,0,1-1,2.06,3.24,3.24,0,0,1-2.22.77,3.17,3.17,0,0,1-2.52-1.06,4.14,4.14,0,0,1-.93-2.85,4.32,4.32,0,0,1,.93-2.92,3.15,3.15,0,0,1,2.52-1.08,3.35,3.35,0,0,1,2.21.73,2.89,2.89,0,0,1,1,2H99.81a1.44,1.44,0,0,0-.52-1,1.77,1.77,0,0,0-1.14-.36,1.58,1.58,0,0,0-1.37.7,3.33,3.33,0,0,0-.49,1.93,3.21,3.21,0,0,0,.49,1.88,1.61,1.61,0,0,0,1.37.68,1.57,1.57,0,0,0,1.66-1.47Z"/><path d="M105.24,110.5a3.38,3.38,0,0,1-2.63-1.06,4,4,0,0,1-1-2.85,4.19,4.19,0,0,1,1-2.92,3.74,3.74,0,0,1,5.26,0,4.23,4.23,0,0,1,1,2.92,4.07,4.07,0,0,1-1,2.85A3.39,3.39,0,0,1,105.24,110.5Zm0-1.33a1.79,1.79,0,0,0,1.49-.69,3,3,0,0,0,.54-1.9,3.14,3.14,0,0,0-.54-2,1.93,1.93,0,0,0-3,0,3.14,3.14,0,0,0-.54,2,3,3,0,0,0,.54,1.9A1.77,1.77,0,0,0,105.24,109.17Z"/><path d="M110.88,110.29h-1.46V102.8h1.64l3,5.25V102.8h1.47v7.49H114l-3.09-5.39Z"/><path d="M118.05,110.29v-6.16h-2.27V102.8h6.1v1.33h-2.26v6.16Z"/><path d="M122.21,110.29V102.8H126a2.54,2.54,0,0,1,1.73.57,1.92,1.92,0,0,1,.66,1.51,1.8,1.8,0,0,1-.74,1.59,2.16,2.16,0,0,1-.43.22,1.92,1.92,0,0,1,.25.12,1.44,1.44,0,0,1,.67,1.29l0,1.23a1.41,1.41,0,0,0,.08.51.47.47,0,0,0,.25.25v.2h-1.72a1.48,1.48,0,0,1-.11-.5,7.26,7.26,0,0,1-.05-.83v-.69a.87.87,0,0,0-.3-.72,1.65,1.65,0,0,0-1-.22h-1.56v3Zm1.56-4.22h1.82a1.47,1.47,0,0,0,.91-.24.93.93,0,0,0,.3-.75.89.89,0,0,0-.29-.74,1.26,1.26,0,0,0-.86-.25h-1.88Z"/><path d="M132.41,110.5a3.37,3.37,0,0,1-2.62-1.06,4,4,0,0,1-1-2.85,4.19,4.19,0,0,1,1-2.92,3.73,3.73,0,0,1,5.25,0,4.19,4.19,0,0,1,1,2.92,4,4,0,0,1-1,2.85A3.36,3.36,0,0,1,132.41,110.5Zm0-1.33a1.8,1.8,0,0,0,1.5-.69,3,3,0,0,0,.54-1.9,3.14,3.14,0,0,0-.54-2,1.93,1.93,0,0,0-3,0,3.14,3.14,0,0,0-.54,2,3,3,0,0,0,.53,1.9A1.8,1.8,0,0,0,132.41,109.17Z"/><path d="M136.67,110.29V102.8h1.57V109H142v1.33Z"/><path d="M144.82,110.29V102.8H148a2.8,2.8,0,0,1,1.94.6,2.2,2.2,0,0,1,.67,1.74,2.41,2.41,0,0,1-.67,1.85,2.71,2.71,0,0,1-1.94.63h-1.57v2.66Zm1.57-4h1.3a1.48,1.48,0,0,0,1-.29,1.12,1.12,0,0,0,.33-.88,1,1,0,0,0-.33-.8,1.54,1.54,0,0,0-1-.27h-1.3Z"/><path d="M151.18,110.29V102.8H155a2.56,2.56,0,0,1,1.73.57,1.94,1.94,0,0,1,.65,1.51,1.8,1.8,0,0,1-.73,1.59,2.58,2.58,0,0,1-.44.22,1.45,1.45,0,0,1,.25.12,1.44,1.44,0,0,1,.67,1.29l0,1.23a1.68,1.68,0,0,0,.08.51.46.46,0,0,0,.26.25v.2h-1.73a1.79,1.79,0,0,1-.11-.5c0-.26,0-.54-.05-.83v-.69a.87.87,0,0,0-.3-.72,1.64,1.64,0,0,0-.95-.22h-1.56v3Zm1.57-4.22h1.81a1.43,1.43,0,0,0,.91-.24.91.91,0,0,0,.31-.75.92.92,0,0,0-.29-.74,1.29,1.29,0,0,0-.87-.25h-1.87Z"/><path d="M161.39,110.5a3.39,3.39,0,0,1-2.63-1.06,4,4,0,0,1-1-2.85,4.19,4.19,0,0,1,1-2.92,3.74,3.74,0,0,1,5.26,0,4.19,4.19,0,0,1,1,2.92,4,4,0,0,1-1,2.85A3.39,3.39,0,0,1,161.39,110.5Zm0-1.33a1.81,1.81,0,0,0,1.5-.69,3,3,0,0,0,.54-1.9,3.14,3.14,0,0,0-.54-2,1.94,1.94,0,0,0-3,0,3.14,3.14,0,0,0-.54,2,3,3,0,0,0,.54,1.9A1.8,1.8,0,0,0,161.39,109.17Z"/><path d="M168.87,110.5a3.31,3.31,0,0,1-2.6-1.06,4.06,4.06,0,0,1-1-2.85,4.15,4.15,0,0,1,1-2.92,4,4,0,0,1,5-.39,2.65,2.65,0,0,1,1,1.84h-1.57a1.28,1.28,0,0,0-.55-.86,1.76,1.76,0,0,0-1.08-.37,2,2,0,0,0-1.6.71,3,3,0,0,0-.57,2,3,3,0,0,0,.55,1.94,2,2,0,0,0,1.62.67h0a1.65,1.65,0,0,0,1.42-.7,2.49,2.49,0,0,0,.41-.92v0h-1.76v-1.29h3.14v4.05h-1l-.16-1-.09.12a2.53,2.53,0,0,1-2.14,1.06Z"/><path d="M173.17,110.29V102.8h3.77a2.54,2.54,0,0,1,1.73.57,1.92,1.92,0,0,1,.66,1.51,1.8,1.8,0,0,1-.74,1.59,2.26,2.26,0,0,1-.44.22,1.57,1.57,0,0,1,.26.12,1.43,1.43,0,0,1,.66,1.29l0,1.23a1.75,1.75,0,0,0,.07.51.49.49,0,0,0,.26.25v.2h-1.73a1.55,1.55,0,0,1-.1-.5,7.26,7.26,0,0,1-.05-.83l0-.69a.84.84,0,0,0-.29-.72,1.68,1.68,0,0,0-1-.22h-1.56v3Zm1.56-4.22h1.82a1.47,1.47,0,0,0,.91-.24,1.09,1.09,0,0,0,0-1.49,1.26,1.26,0,0,0-.86-.25h-1.88Z"/><path d="M179.52,110.29l2.65-7.49H184l2.65,7.49H185l-.51-1.52h-2.84l-.5,1.52Zm3.53-5.82-1,3h2Z"/><path d="M188.43,110.29H187V102.8h2.29l1.37,5.94L192,102.8h2.26v7.49h-1.46V104l-1.41,6.3h-1.53l-1.41-6.44Z"/></g></g></svg>